<?xml version="1.0" encoding="utf-8"?>
<!-- Generator: Adobe Illustrator 24.1.0, SVG Export Plug-In . SVG Version: 6.00 Build 0)  -->
<svg version="1.1" id="Layer_1" xmlns:sketch="http://www.bohemiancoding.com/sketch/ns"
	 xmlns="http://www.w3.org/2000/svg" xmlns:xlink="http://www.w3.org/1999/xlink" x="0px" y="0px" viewBox="0 0 220 220"
	 style="enable-background:new 0 0 220 220;" xml:space="preserve">
<style type="text/css">
	.st0{fill-rule:evenodd;clip-rule:evenodd;fill:#000;fill-opacity:0.66}
</style>
<desc>Created with Sketch.</desc>
<g id="Page-1" sketch:type="MSPage">
	<g id="Popsa-Emblem" sketch:type="MSLayerGroup">
		<path id="Shape" sketch:type="MSShapeGroup" class="st0" d="M89.2,67.7c-14.2,0-27.4-4.1-38.5-11.4c-10.1-6.8-19.5-16.8-19.5-26.6
			c0-3.6,2.1-8.9,7.5-8.9c4.6,0,8.4,3.3,14.4,7c10.6,6.3,22.9,9.9,36.2,9.9s25.5-3.6,36.2-9.9c5.9-3.6,9.7-7,14.4-7
			c5.4,0,7.5,5.3,7.5,8.9c0,9.7-9.3,19.7-19.5,26.6C116.6,63.5,103.4,67.7,89.2,67.7L89.2,67.7z"/>
		<path id="Shape_1_" sketch:type="MSShapeGroup" class="st0" d="M89.2,152.3c-14.2,0-27.4,4.1-38.5,11.4
			c-10.1,6.8-19.5,16.8-19.5,26.6c0,3.6,2.1,8.9,7.5,8.9c4.6,0,8.4-3.3,14.4-7c10.6-6.3,22.9-9.9,36.2-9.9s25.5,3.6,36.2,9.9
			c5.9,3.6,9.7,7,14.4,7c5.4,0,7.5-5.3,7.5-8.9c0-9.7-9.3-19.7-19.5-26.6C116.6,156.5,103.4,152.3,89.2,152.3L89.2,152.3z"/>
		<path id="Shape_2_" sketch:type="MSShapeGroup" class="st0" d="M131.5,110c0-14.2,4.1-27.4,11.4-38.5
			c6.8-10.1,16.8-19.5,26.6-19.5c3.6,0,8.9,2.1,8.9,7.5c0,4.6-3.3,8.4-7,14.4c-6.3,10.6-9.9,22.9-9.9,36.2s3.6,25.5,9.9,36.2
			c3.6,5.9,7,9.7,7,14.4c0,5.4-5.3,7.5-8.9,7.5c-9.7,0-19.7-9.3-26.6-19.5C135.7,137.4,131.5,124.2,131.5,110L131.5,110z"/>
		<path id="Shape_3_" sketch:type="MSShapeGroup" class="st0" d="M46.9,110c0-14.2-4.1-27.4-11.4-38.5C28.7,61.3,18.7,52,8.9,52
			C5.3,52,0,54.1,0,59.6c0,4.6,3.3,8.4,7,14.4c6.3,10.6,9.9,22.9,9.9,36.2s-3.6,25.5-9.9,36.2c-3.6,5.9-7,9.7-7,14.4
			c0,5.4,5.3,7.5,8.9,7.5c9.7,0,19.7-9.3,26.6-19.5C42.7,137.4,46.9,124.2,46.9,110L46.9,110z"/>
	</g>
</g>
</svg>
