<?xml version="1.0" standalone="no"?>
<!DOCTYPE svg PUBLIC "-//W3C//DTD SVG 20010904//EN"
 "http://www.w3.org/TR/2001/REC-SVG-20010904/DTD/svg10.dtd">
<svg version="1.0" xmlns="http://www.w3.org/2000/svg"
 width="396.000000pt" height="396.000000pt" viewBox="0 0 396.000000 396.000000"
 preserveAspectRatio="xMidYMid meet">
<metadata>
Created by potrace 1.11, written by Peter Selinger 2001-2013
</metadata>
<g transform="translate(0.000000,396.000000) scale(0.100000,-0.100000)"
fill="#000000" stroke="none">
<path d="M637 3944 c-1 -1 -27 -5 -57 -8 -283 -33 -523 -273 -557 -556 -8 -68
-9 -17 12 -890 2 -69 6 -258 10 -420 10 -466 12 -498 47 -615 63 -218 218
-405 424 -513 34 -17 256 -96 495 -176 239 -79 850 -282 1359 -451 923 -307
925 -308 1020 -311 254 -8 468 143 544 385 20 63 24 93 22 176 l-3 100 -242
730 c-133 402 -246 739 -251 750 -5 11 -94 281 -199 600 -106 319 -193 585
-195 590 -2 6 -4 13 -5 18 0 4 -16 38 -35 76 -41 80 -121 189 -180 245 -61 57
-192 139 -270 170 -138 55 -182 60 -691 71 -148 3 -337 8 -420 10 -82 2 -271
7 -420 10 -148 4 -301 7 -338 8 -37 2 -69 2 -70 1z m395 -509 c153 -3 340 -8
416 -10 75 -2 274 -6 442 -10 379 -7 426 -10 486 -31 80 -26 155 -90 194 -165
11 -20 123 -349 250 -730 622 -1873 644 -1941 634 -1957 -26 -40 -33 -39 -396
82 -1664 551 -2287 760 -2318 776 -71 36 -138 115 -165 195 -18 54 -20 93 -30
505 -3 151 -8 340 -10 420 -4 132 -15 612 -18 735 -2 140 59 205 190 199 26
-2 173 -5 325 -9z"/>
</g>
</svg>
